<?xml version="1.0" encoding="UTF-8" standalone="no"?>
<!-- Created with Inkscape (http://www.inkscape.org/) -->

<svg
   width="7995.1567mm"
   height="7036.2178mm"
   viewBox="0 0 7995.1568 7036.2177"
   version="1.1"
   id="svg1"
   sodipodi:docname="route-icon.svg"
   inkscape:version="1.3.2 (091e20e, 2023-11-25, custom)"
   xmlns:inkscape="http://www.inkscape.org/namespaces/inkscape"
   xmlns:sodipodi="http://sodipodi.sourceforge.net/DTD/sodipodi-0.dtd"
   xmlns="http://www.w3.org/2000/svg"
   xmlns:svg="http://www.w3.org/2000/svg">
  <sodipodi:namedview
     id="namedview1"
     pagecolor="#ffffff"
     bordercolor="#000000"
     borderopacity="0.25"
     inkscape:showpageshadow="2"
     inkscape:pageopacity="0.0"
     inkscape:pagecheckerboard="0"
     inkscape:deskcolor="#d1d1d1"
     inkscape:document-units="mm"
     inkscape:zoom="0.01"
     inkscape:cx="29900"
     inkscape:cy="13350"
     inkscape:window-width="1600"
     inkscape:window-height="927"
     inkscape:window-x="-6"
     inkscape:window-y="-6"
     inkscape:window-maximized="1"
     inkscape:current-layer="layer1" />
  <defs
     id="defs1">
    <inkscape:path-effect
       effect="spiro"
       id="path-effect1"
       is_visible="true"
       lpeversion="1" />
    <inkscape:path-effect
       effect="fill_between_many"
       method="originald"
       linkedpaths="#g82,0,1"
       id="path-effect82"
       is_visible="true"
       lpeversion="0"
       join="true"
       close="true"
       autoreverse="true" />
    <inkscape:path-effect
       effect="fill_between_many"
       method="originald"
       linkedpaths="#g82,0,1"
       id="path-effect82-4"
       is_visible="true"
       lpeversion="0"
       join="true"
       close="true"
       autoreverse="true" />
  </defs>
  <g
     inkscape:label="Layer 1"
     inkscape:groupmode="layer"
     id="layer1"
     transform="translate(7619.0602,1394.0048)">
    <g
       id="g1"
       transform="translate(0,-491.78116)">
      <path
         style="fill:none;stroke:#1a1a1a;stroke-width:400;stroke-linecap:round;stroke-miterlimit:2.5;stroke-dasharray:400, 800;stroke-dashoffset:0;stroke-opacity:1"
         d="m -6297.1812,1889.3497 c -148.1129,110.0974 -245.0052,286.4024 -258.5489,470.4552 -13.5437,184.0529 56.4974,372.6418 186.8989,503.234 105.1269,105.2806 245.8647,171.9444 392.3874,197.7663 146.5227,25.8219 298.5193,12.0819 441.6273,-28.6094 286.2159,-81.3825 531.2591,-265.2097 758.9798,-456.7455 227.7207,-191.5357 448.7097,-396.7652 712.5489,-534.3571 131.9196,-68.7959 274.1198,-119.9319 421.6244,-139.3761 147.5045,-19.4442 300.5907,-6.3514 438.8248,48.6669 186.0072,74.0324 338.7998,223.2358 427.0978,402.9103 88.2981,179.6745 113.4119,387.8619 81.2724,585.4638 -32.1395,197.6019 -120.061,384.4237 -243.1241,542.3317 -123.0632,157.908 -280.546,287.4454 -453.7587,387.8287 -346.4255,200.7668 -748.5137,283.7401 -1146.498,327.6305 -397.9843,43.8904 -800.0927,51.804 -1195.1591,116.9222 -179.3982,29.5699 -359.1172,71.7041 -520.1984,156.0306 -161.0811,84.3266 -303.3631,214.8333 -373.0475,382.7684 -53.9462,130.007 -61.7488,277.5679 -28.2064,414.2681 33.5424,136.7001 107.4314,262.3417 205.8977,362.9221 196.9326,201.1607 484.2418,296.3695 765.6492,303.985 281.4073,7.6156 559.1998,-64.9423 824.3344,-159.5561 265.1345,-94.6139 522.076,-211.744 789.8702,-298.5448 1031.4168,-334.3158 2209.01,-183.5454 3122.93142,399.8372"
         id="path1"
         inkscape:path-effect="#path-effect1"
         inkscape:original-d="m -6297.1812,1889.3497 c 1525.419,2.8071 -10410.6198,5351.6173 -71.65,973.6892 C -2178.2451,1088.5792 -3840544.4,-7244653.4 -3202.8386,1950.384 c 346.5136,654.3716 14700.7876,-12762.826 -2530.1697,2363.0872 -170130.1617,149345.9788 -717.8615,1311.839 -893.2459,538.799 -156.091,-688.0007 4722.6629,2327.2763 2557.5451,623.0743 -910.339,-716.5438 1880.4613,167.2309 3122.93142,399.8372"
         sodipodi:nodetypes="csssssc" />
      <path
         id="path6"
         style="display:inline;fill:#c83737;stroke:#c83737;stroke-width:5.61409;stroke-linecap:round;stroke-miterlimit:2.5"
         d="m -909.95505,2112.7246 a 1283.2448,1283.2448 0 0 0 -1283.24455,1283.246 1283.2448,1283.2448 0 0 0 177.0419,644.9343 l -4.1786,-1.7803 1074.55862,1836.0571 v 0 a 41.39761,41.39761 0 0 0 35.82051,20.6891 v 0 a 41.39761,41.39761 0 0 0 35.81538,-20.6814 l 0.014,-0.024 1074.55246,-1836.0452 -4.1806,1.7813 A 1283.2448,1283.2448 0 0 0 373.2895,3395.9706 1283.2448,1283.2448 0 0 0 -909.95505,2112.7246 Z" />
      <path
         d="m -909.92719,5936.438 -0.0279,-0.048 v 0.095 z"
         style="display:inline;fill:#bc5c2c;stroke:#bc5c2c;stroke-width:0.100012;stroke-linecap:round"
         id="path48" />
      <path
         d="m -909.8998,5936.3904 -0.0274,0.048 0.0274,0.047 z"
         style="display:inline;fill:#bc5c2c;stroke:#bc5c2c;stroke-width:0.100012;stroke-linecap:round"
         id="path47" />
      <path
         style="display:inline;fill:none;fill-opacity:1;stroke:#0000ff;stroke-width:0.529167;stroke-dasharray:none"
         d="m -782.95505,2132.8646 v -6.3659"
         id="path7" />
      <path
         style="display:inline;fill:none;fill-opacity:1;stroke:#0000ff;stroke-width:0.529167;stroke-dasharray:none"
         d="m -1036.955,2132.8646 v -6.3659"
         id="path8" />
      <path
         style="display:inline;fill:none;fill-opacity:1;stroke:#0000ff;stroke-width:0.529167;stroke-dasharray:none"
         d="m 331.0784,3126.7996 6.05367,-1.9671"
         id="path11" />
      <path
         inkscape:original-d="M 0,0"
         inkscape:path-effect="#path-effect82"
         d="M 0,0"
         id="path82"
         style="display:inline;fill:#ffffff;fill-opacity:1"
         transform="matrix(0.26458333,0,0,0.26458333,-909.95505,3099.4999)" />
      <path
         d="m -1036.955,2678.0794 a 127,127 0 0 0 -169.3334,-119.7367 888.99999,888.99999 0 0 0 -409.2295,297.3226 127,127 0 0 0 61.5495,198.0463 l 350.7682,113.9715 a 127,127 0 0 0 166.2452,-120.7842 z"
         style="fill:none;fill-opacity:1;stroke:none;stroke-width:0.529167;stroke-dasharray:none"
         id="path9" />
      <path
         d="m -1206.2884,2558.3427 a 888.99999,888.99999 0 0 0 -409.2295,297.3226"
         style="fill:none;fill-opacity:1;stroke:none;stroke-width:0.529167;stroke-dasharray:none"
         id="path12" />
      <path
         style="fill:none;fill-opacity:1;stroke:none;stroke-width:0.529167;stroke-dasharray:none"
         d="m -1203.2007,3167.683 -350.7687,-113.9714"
         id="path13" />
      <path
         style="fill:none;fill-opacity:1;stroke:none;stroke-width:0.529167;stroke-dasharray:none"
         d="M -1036.955,3046.8989 V 2678.0795"
         id="path14" />
      <path
         d="m -1036.955,2678.0794 a 127,127 0 0 0 -169.3334,-119.7367"
         style="fill:none;fill-opacity:1;stroke:none;stroke-width:0.529167;stroke-dasharray:none"
         id="path15" />
      <circle
         style="display:inline;fill:#ffffff;stroke:#447821;stroke-width:3.05781;stroke-linecap:round;stroke-miterlimit:2.5"
         id="path10"
         cx="-909.95502"
         cy="3395.9712"
         r="598.47107" />
      <path
         id="path6-0"
         style="display:inline;fill:#447821;stroke:#447821;stroke-width:5.61409;stroke-linecap:round;stroke-miterlimit:2.5"
         d="m -6333.0086,-899.4166 a 1283.2448,1283.2448 0 0 0 -1283.2446,1283.23961 1283.2448,1283.2448 0 0 0 177.0419,644.93449 l -4.1786,-1.7802 1074.5587,1836.0616 v 0 a 41.39761,41.39761 0 0 0 35.8206,20.6891 v 0 a 41.39761,41.39761 0 0 0 35.8154,-20.6815 l 0.014,-0.024 1074.5524,-1836.0498 -4.1806,1.7812 A 1283.2448,1283.2448 0 0 0 -5049.767,383.82301 1283.2448,1283.2448 0 0 0 -6333.0116,-899.4166 Z" />
      <path
         d="m -6332.9807,1950.6224 -0.028,-0.048 v 0.095 z"
         style="display:inline;fill:#bc5c2c;stroke:#bc5c2c;stroke-width:0.100012;stroke-linecap:round"
         id="path48-5" />
      <path
         d="m -6332.9533,1950.5749 -0.027,0.048 0.027,0.047 z"
         style="display:inline;fill:#bc5c2c;stroke:#bc5c2c;stroke-width:0.100012;stroke-linecap:round"
         id="path47-3" />
      <path
         style="display:inline;fill:none;fill-opacity:1;stroke:#0000ff;stroke-width:0.529167;stroke-dasharray:none"
         d="m -5091.9751,-859.01515 6.0537,-1.9671"
         id="path11-4" />
      <circle
         style="display:inline;fill:#ffffff;stroke:#447821;stroke-width:3.05781;stroke-linecap:round;stroke-miterlimit:2.5"
         id="path10-4"
         cx="-6333.0083"
         cy="383.8226"
         r="598.47107" />
    </g>
  </g>
</svg>
