<?xml version="1.0" encoding="UTF-8" standalone="no"?>
<svg
   viewBox="0 0 4592.5986 4591.2565"
   width="4592.5986"
   height="4591.2563"
   version="1.1"
   id="svg43"
   sodipodi:docname="wheel-thin.svg"
   inkscape:version="1.3.2 (091e20e, 2023-11-25, custom)"
   inkscape:export-filename="wheel_300_x_300.png"
   inkscape:export-xdpi="2.9690361"
   inkscape:export-ydpi="2.9690361"
   xmlns:inkscape="http://www.inkscape.org/namespaces/inkscape"
   xmlns:sodipodi="http://sodipodi.sourceforge.net/DTD/sodipodi-0.dtd"
   xmlns="http://www.w3.org/2000/svg"
   xmlns:svg="http://www.w3.org/2000/svg">
  <sodipodi:namedview
     id="namedview43"
     pagecolor="#ffffff"
     bordercolor="#000000"
     borderopacity="0.25"
     inkscape:showpageshadow="2"
     inkscape:pageopacity="0.0"
     inkscape:pagecheckerboard="0"
     inkscape:deskcolor="#d1d1d1"
     inkscape:zoom="0.0625"
     inkscape:cx="2904"
     inkscape:cy="872"
     inkscape:window-width="1600"
     inkscape:window-height="927"
     inkscape:window-x="-6"
     inkscape:window-y="-6"
     inkscape:window-maximized="1"
     inkscape:current-layer="g43"
     showguides="false"
     inkscape:export-bgcolor="#ffffff00" />
  <desc
     id="desc1">Logo_Mobility_Mapper.dxf - scale = 25.400000, origin = (0.000000, 0.000000), method = file</desc>
  <defs
     id="defs4">
    <marker
       id="DistanceX"
       orient="auto"
       refX="0"
       refY="0"
       style="overflow:visible">
      <path
         d="M 3,-3 -3,3 M 0,-5 V 5"
         style="stroke:#000000;stroke-width:0.5"
         id="path1" />
    </marker>
    <pattern
       id="Hatch"
       patternUnits="userSpaceOnUse"
       width="8"
       height="8"
       x="0"
       y="0">
      <path
         d="M8 4 l-4,4"
         stroke="#000000"
         stroke-width="0.25"
         linecap="square"
         id="path2" />
      <path
         d="M6 2 l-4,4"
         stroke="#000000"
         stroke-width="0.25"
         linecap="square"
         id="path3" />
      <path
         d="M4 0 l-4,4"
         stroke="#000000"
         stroke-width="0.25"
         linecap="square"
         id="path4" />
    </pattern>
    <symbol
       id="*MODEL_SPACE" />
    <symbol
       id="*PAPER_SPACE" />
    <inkscape:path-effect
       effect="fill_between_many"
       method="originald"
       linkedpaths="#path35,0,1|#path34,0,1|#path36,0,1|#path5,0,1"
       id="path-effect81"
       is_visible="true"
       lpeversion="0"
       join="true"
       close="true"
       autoreverse="true" />
    <inkscape:path-effect
       effect="fill_between_many"
       method="originald"
       linkedpaths="#g82,0,1|#path38,0,1"
       id="path-effect82"
       is_visible="true"
       lpeversion="0"
       join="true"
       close="true"
       autoreverse="true" />
  </defs>
  <g
     inkscape:groupmode="layer"
     inkscape:label="0"
     id="g43"
     transform="translate(2296.2993,1174.339)">
    <path
       style="fill:none;fill-opacity:1;stroke:#0000ff;stroke-width:2;stroke-dasharray:none"
       d="m 480,-3653.42 v -24.06"
       id="path7" />
    <path
       style="fill:none;fill-opacity:1;stroke:#0000ff;stroke-width:2;stroke-dasharray:none"
       d="m -480,-3653.42 v -24.06"
       id="path8" />
    <path
       style="fill:none;fill-opacity:1;stroke:#0000ff;stroke-width:2;stroke-dasharray:none"
       d="m 4690.52,103.18 22.88,-7.4348"
       id="path11" />
    <path
       inkscape:original-d="M 0,0"
       inkscape:path-effect="#path-effect82"
       d="M 0,0"
       id="path82"
       style="fill:#ffffff;fill-opacity:1" />
    <g
       id="g69"
       style="fill:none;fill-opacity:1;stroke:none">
      <path
         d="m -480,-1592.7704 a 480,480 0 0 0 -640,-452.5483 3360,3360 0 0 0 -1546.6943,1123.73919 480,480 0 0 0 232.6282,748.5213 l 1325.7379,430.75838 A 480,480 0 0 0 -480,-198.80696 Z"
         style="fill:none;fill-opacity:1;stroke:none;stroke-width:2;stroke-dasharray:none"
         id="path9" />
      <path
         d="M -1120,-2045.3187 A 3360,3360 0 0 0 -2666.6943,-921.57951"
         style="fill:none;fill-opacity:1;stroke:none;stroke-width:2;stroke-dasharray:none"
         id="path12" />
      <path
         style="fill:none;fill-opacity:1;stroke:none;stroke-width:2;stroke-dasharray:none"
         d="M -1108.33,257.7 -2434.07,-173.058"
         id="path13" />
      <path
         style="fill:none;fill-opacity:1;stroke:none;stroke-width:2;stroke-dasharray:none"
         d="M -480,-198.807 V -1592.77"
         id="path14" />
      <path
         d="m -480,-1592.7704 a 480,480 0 0 0 -640,-452.5483"
         style="fill:none;fill-opacity:1;stroke:none;stroke-width:2;stroke-dasharray:none"
         id="path15" />
    </g>
    <path
       id="path83"
       style="fill:#bc5c2c;stroke:#845444;stroke-width:53.7832;stroke-dasharray:none;stroke-opacity:1"
       d="m -169.59238,-1141.0959 a 2269.4081,2269.4081 0 0 0 -2099.81532,2263.0618 2269.4081,2269.4081 0 0 0 4538.8154,0 2269.4081,2269.4081 0 0 0 -2439.00008,-2263.0618 z M -480,-663.59707 a 322.09944,322.09944 0 0 1 308.48214,321.81132 V 437.7192 A 322.09944,322.09944 0 0 1 -593.15155,744.05421 L -1334.5051,503.17393 A 322.09944,322.09944 0 0 1 -1490.6077,0.88544137 1932.5967,1932.5967 0 0 1 -600.9848,-645.46417 322.09944,322.09944 0 0 1 -480,-663.59707 Z m 946.35357,0.86765 A 322.09943,322.09943 0 0 1 600.98373,-645.46417 1932.5966,1932.5966 0 0 1 1490.6077,0.88544137 322.09943,322.09943 0 0 1 1334.5051,503.17393 L 593.15155,744.05421 A 322.09943,322.09943 0 0 1 171.51786,437.7192 V -341.78575 A 322.09943,322.09943 0 0 1 466.35357,-662.72942 Z M -58.886257,788.01144 a 339.10696,339.10696 0 0 1 397.993287,333.95446 339.10703,339.10703 0 0 1 -678.21406,0 339.10696,339.10696 0 0 1 280.220773,-333.95446 z M 1542.0756,819.51346 a 322.09944,322.09944 0 0 1 330.8704,330.24754 1932.5967,1932.5967 0 0 1 -339.8066,1045.8156 322.09944,322.09944 0 0 1 -525.9426,6.7523 L 549.01473,1571.6962 A 322.09944,322.09944 0 0 1 710.06482,1076.036 L 1451.4183,835.15574 a 322.09944,322.09944 0 0 1 90.6573,-15.64228 z m -3060.2734,1.54731 a 322.09944,322.09944 0 0 1 66.7795,14.09497 l 741.35348,240.88026 a 322.09944,322.09944 0 0 1 161.05009,495.6602 l -458.18207,630.6327 a 322.09944,322.09944 0 0 1 -525.9426,-6.7523 1932.5967,1932.5967 0 0 1 -339.8066,-1045.8156 322.09944,322.09944 0 0 1 354.7482,-328.70023 z M -33.668048,1655.7491 a 322.09944,322.09944 0 0 1 294.251658,131.0093 l 458.18209,630.6328 a 322.09944,322.09944 0 0 1 -168.94739,498.115 1932.5967,1932.5967 0 0 1 -1099.63662,0 322.09944,322.09944 0 0 1 -168.94739,-498.115 l 458.18209,-630.6328 a 322.09944,322.09944 0 0 1 226.915562,-131.0093 z" />
    <ellipse
       style="fill:#845444;fill-opacity:1;stroke:#845444;stroke-width:76.7299"
       id="path6"
       cx="-5.7143461e-13"
       cy="1122.5121"
       rx="338.56067"
       ry="338.56085" />
    <ellipse
       style="fill:none;stroke:#845444;stroke-width:360.229;stroke-linecap:round;stroke-miterlimit:2.5;stroke-dasharray:none;stroke-opacity:1"
       id="path16"
       ry="2069.4109"
       rx="2068.3179"
       cy="1121.3335"
       cx="-0.00011796875" />
  </g>
</svg>
